<?xml version="1.0" standalone="no"?>
<!DOCTYPE svg PUBLIC "-//W3C//DTD SVG 20010904//EN"
 "http://www.w3.org/TR/2001/REC-SVG-20010904/DTD/svg10.dtd">
<svg version="1.0" xmlns="http://www.w3.org/2000/svg"
 width="1280.000000pt" height="905.000000pt" viewBox="0 0 1280.000000 905.000000"
 preserveAspectRatio="xMidYMid meet">
<g transform="translate(0.000000,905.000000) scale(0.100000,-0.100000)"
fill="#000000" stroke="none">
<path d="M410 9037 c0 -8 11 -36 25 -62 l24 -49 -22 -24 c-23 -26 -263 -222
-373 -306 l-64 -48 0 -64 c0 -35 4 -64 9 -64 12 0 300 217 438 330 l112 92
126 -104 c69 -56 208 -164 308 -238 101 -74 232 -173 292 -220 61 -47 135
-104 165 -127 30 -23 70 -55 88 -70 l34 -28 -26 -49 c-32 -61 -32 -80 -1 -141
l24 -49 -22 -24 c-12 -13 -62 -56 -112 -95 -49 -39 -126 -101 -170 -138 -44
-36 -156 -122 -250 -191 -93 -68 -217 -161 -274 -205 -57 -45 -122 -95 -145
-111 l-42 -31 -130 100 c-189 145 -411 309 -418 309 -3 0 -6 -28 -6 -62 l0
-63 78 -59 c42 -33 141 -109 218 -168 78 -60 147 -115 153 -122 9 -11 6 -25
-14 -61 -31 -60 -31 -80 0 -140 25 -46 25 -48 8 -67 -17 -19 -149 -127 -355
-292 l-88 -70 0 -63 c0 -35 3 -63 6 -63 13 0 224 158 384 287 90 73 167 133
170 133 3 0 66 -50 140 -111 74 -61 209 -165 300 -232 91 -67 197 -146 235
-177 39 -31 125 -98 191 -148 67 -51 126 -98 132 -105 8 -10 5 -26 -13 -62
-31 -61 -31 -80 0 -140 31 -57 35 -49 -94 -153 -53 -42 -132 -107 -176 -143
-44 -36 -163 -127 -265 -202 -102 -75 -246 -183 -320 -240 l-134 -104 -81 60
c-44 33 -118 90 -165 127 -47 37 -136 104 -197 149 l-113 81 0 -64 0 -65 93
-73 c50 -41 146 -115 212 -165 166 -126 160 -118 129 -178 -28 -57 -26 -97 8
-153 16 -26 18 -35 8 -47 -12 -14 -110 -95 -357 -293 l-93 -75 0 -63 c0 -35 2
-64 5 -64 12 0 239 171 388 292 87 70 162 128 166 128 4 0 63 -46 132 -102 68
-56 221 -174 339 -263 323 -242 503 -380 523 -402 17 -19 17 -22 -8 -64 -31
-56 -31 -84 1 -145 l26 -49 -34 -28 c-18 -16 -64 -54 -103 -85 -38 -32 -108
-89 -155 -127 -47 -39 -166 -130 -265 -202 -99 -73 -238 -178 -310 -234 -71
-55 -136 -103 -142 -106 -7 -3 -65 35 -129 84 -222 168 -341 258 -388 291
l-46 33 0 -65 0 -64 128 -99 c70 -55 165 -129 212 -165 127 -98 124 -94 95
-153 -31 -61 -31 -69 2 -135 l27 -53 -35 -30 c-64 -54 -272 -222 -350 -282
l-78 -60 0 -68 c-1 -52 2 -66 12 -61 47 29 257 187 384 291 83 67 156 123 162
123 5 0 81 -58 168 -128 87 -71 232 -183 323 -250 254 -188 452 -340 489 -376
l33 -34 -23 -32 c-33 -44 -33 -113 0 -158 l23 -33 -28 -31 c-52 -55 -320 -267
-625 -495 -68 -51 -177 -133 -242 -183 -64 -49 -120 -90 -123 -90 -3 0 -54 37
-112 82 -162 125 -433 328 -438 328 -2 0 -4 -29 -4 -63 l0 -64 63 -49 c34 -26
119 -91 188 -144 144 -109 209 -164 209 -174 0 -5 -9 -20 -19 -35 -33 -46 -35
-90 -7 -146 l26 -49 -27 -28 -27 -28 149 0 150 0 -26 26 -26 26 24 45 c30 53
27 105 -8 154 l-23 32 40 35 c21 19 84 68 139 110 55 41 129 98 165 126 35 28
146 112 246 186 101 74 239 181 307 237 l124 102 124 -101 c68 -55 228 -178
354 -274 362 -272 488 -369 513 -397 l24 -25 -24 -32 c-32 -44 -32 -113 1
-158 l23 -33 -28 -30 -28 -29 144 0 143 0 -22 24 -22 23 26 48 c31 60 31 79 0
140 -23 46 -23 50 -8 68 20 21 237 189 473 364 151 113 233 176 450 349 l76
62 155 -125 c85 -69 233 -183 329 -254 218 -160 463 -349 501 -385 l28 -27
-24 -42 c-32 -54 -32 -102 1 -150 l25 -38 -27 -28 -28 -29 144 0 143 0 -21 23
c-27 29 -27 31 0 67 29 40 29 105 -2 155 l-23 37 29 29 c36 35 271 217 504
388 96 71 244 185 329 254 l155 125 76 -62 c217 -173 299 -236 450 -349 224
-166 429 -324 462 -355 l27 -25 -21 -29 c-33 -47 -35 -108 -5 -161 l24 -45
-26 -26 -26 -26 145 0 145 0 -27 26 -26 26 24 36 c30 44 31 103 3 156 l-20 38
23 25 c25 28 166 137 498 386 118 88 275 209 348 269 73 59 139 108 145 108 7
0 71 -48 142 -107 72 -59 200 -158 285 -221 157 -115 311 -233 491 -374 l99
-78 -25 -36 c-34 -50 -34 -117 -1 -164 l24 -35 -26 -28 -26 -27 144 0 145 0
-27 26 -26 26 24 36 c31 46 32 104 0 156 l-23 38 42 39 c49 45 262 209 505
388 96 71 234 177 305 236 72 59 140 112 151 117 19 9 44 -7 201 -133 99 -79
253 -199 344 -265 184 -136 373 -281 439 -335 l43 -36 -26 -54 c-33 -66 -33
-72 0 -139 l26 -53 -29 -24 -29 -23 150 0 150 0 -27 27 -27 26 22 31 c31 44
30 123 -2 166 l-23 32 23 23 c28 27 207 165 534 410 127 95 282 216 345 268
110 89 117 93 138 79 l22 -14 0 232 c0 225 -1 233 -18 217 -10 -10 -22 -17
-26 -17 -4 0 -70 48 -147 107 -77 60 -225 171 -329 248 -160 119 -383 295
-509 403 l-35 29 25 34 c33 46 33 121 1 166 l-23 32 42 38 c23 21 95 79 160
128 65 50 151 115 191 146 40 31 152 115 248 188 96 72 219 167 274 211 101
82 110 87 121 70 20 -33 25 9 25 215 0 124 -4 225 -9 225 -5 0 -14 -7 -21 -15
-10 -12 -31 0 -139 82 -69 54 -189 144 -266 202 -254 189 -586 451 -614 484
-9 12 -7 22 14 52 32 48 32 97 1 152 l-24 41 32 31 c41 40 278 222 511 394 99
72 218 164 265 202 47 39 113 92 148 119 60 48 63 49 82 31 20 -18 20 -17 20
215 l0 232 -23 -15 c-23 -15 -28 -12 -148 80 -68 52 -194 147 -279 210 -247
184 -308 232 -533 419 l-77 65 25 43 c32 54 32 98 0 151 l-24 42 28 27 c38 37
284 225 511 393 102 75 221 166 265 202 44 37 111 91 148 120 66 52 68 53 87
36 20 -18 20 -16 20 215 l0 232 -24 -16 c-24 -15 -27 -13 -143 75 -65 50 -221
169 -348 264 -250 189 -449 346 -506 402 l-37 35 24 41 c13 23 24 52 24 65 0
22 -1 22 -145 22 l-145 0 6 -27 c4 -16 16 -43 27 -61 l19 -33 -28 -30 c-42
-44 -395 -325 -585 -465 -90 -67 -217 -163 -283 -213 l-118 -91 -43 31 c-24
17 -89 67 -146 112 -57 44 -180 137 -274 205 -93 69 -206 155 -250 191 -44 36
-114 93 -155 125 -41 33 -92 75 -112 94 l-37 35 20 28 c11 16 23 45 26 64 l6
35 -142 0 c-137 0 -141 -1 -141 -21 0 -12 10 -42 22 -66 l22 -44 -47 -40
c-109 -94 -253 -208 -417 -331 -96 -72 -206 -155 -245 -185 -38 -29 -123 -94
-188 -144 l-119 -90 -56 42 c-31 23 -106 81 -167 129 -60 47 -168 129 -240
180 -130 95 -463 357 -522 413 l-31 29 24 35 c13 20 24 49 24 64 l0 29 -140 0
c-137 0 -140 0 -140 -22 0 -12 11 -40 25 -64 l25 -42 -58 -49 c-31 -27 -79
-66 -107 -88 -27 -21 -86 -69 -130 -105 -44 -37 -163 -128 -265 -203 -102 -75
-247 -184 -322 -242 l-138 -106 -141 108 c-77 59 -213 162 -303 228 -138 102
-419 324 -535 422 l-34 29 27 57 c15 31 25 61 21 66 -4 7 -59 11 -147 11
l-141 0 7 -32 c3 -18 16 -46 27 -61 17 -24 18 -31 7 -44 -24 -29 -371 -306
-528 -421 -85 -63 -193 -144 -240 -181 -47 -37 -119 -93 -161 -125 l-77 -57
-108 82 c-60 45 -132 101 -160 123 -28 23 -121 93 -207 155 -86 62 -201 150
-255 195 -55 44 -140 114 -191 155 -50 41 -91 78 -91 83 0 5 9 21 20 36 11 15
23 42 26 60 l6 32 -146 0 c-166 0 -166 0 -121 -79 25 -42 25 -45 8 -64 -33
-36 -371 -306 -540 -430 -93 -68 -215 -160 -272 -204 -57 -45 -122 -95 -146
-112 l-43 -31 -118 91 c-66 50 -193 146 -283 213 -191 141 -507 391 -568 449
l-42 40 25 42 c13 23 24 51 24 63 0 22 -3 22 -145 22 -114 0 -145 -3 -145 -13z
m2531 -329 c80 -65 229 -180 331 -255 183 -136 436 -330 491 -376 l28 -23 -27
-48 c-31 -56 -29 -107 6 -156 18 -26 20 -33 9 -47 -25 -29 -372 -306 -524
-417 -82 -60 -190 -142 -240 -181 -49 -39 -125 -96 -167 -128 l-77 -56 -118
90 c-65 50 -221 169 -348 264 -246 185 -485 376 -523 418 l-24 25 24 32 c17
23 23 45 23 80 0 35 -6 57 -23 80 l-24 32 24 25 c28 30 226 183 638 492 74 55
184 141 245 190 60 49 114 87 120 83 5 -3 76 -59 156 -124z m2229 -9 c85 -68
223 -173 305 -233 83 -60 182 -135 220 -166 39 -31 108 -85 155 -120 47 -34
102 -79 122 -98 l37 -35 -21 -30 c-12 -16 -23 -50 -26 -76 -3 -38 1 -53 22
-84 15 -21 24 -42 21 -47 -11 -18 -419 -343 -575 -458 -91 -67 -227 -169 -302
-227 l-137 -105 -143 110 c-79 61 -222 168 -318 239 -223 165 -550 428 -550
444 0 5 9 21 19 36 33 46 35 90 7 146 l-26 49 28 29 c15 16 70 61 122 100 52
39 136 103 185 142 50 39 155 118 235 177 80 58 212 160 294 227 91 73 154
117 160 112 6 -4 81 -64 166 -132z m2255 -30 c44 -36 163 -127 265 -202 226
-167 473 -356 510 -392 l28 -27 -24 -35 c-33 -48 -32 -108 1 -157 l25 -37 -48
-44 c-90 -83 -226 -189 -627 -492 -60 -45 -163 -123 -228 -173 l-118 -90 -120
93 c-67 50 -204 154 -306 229 -210 156 -583 455 -583 468 0 5 10 25 21 45 28
47 28 104 0 150 -30 51 -39 40 169 200 78 61 225 171 326 246 101 75 254 194
340 263 l156 126 66 -52 c37 -29 103 -82 147 -119z m2140 64 c72 -59 225 -177
340 -264 289 -216 485 -366 514 -395 l25 -23 -23 -42 c-29 -51 -29 -108 0
-155 l21 -35 -23 -26 c-41 -44 -319 -266 -541 -432 -117 -87 -266 -200 -331
-250 l-118 -90 -77 56 c-42 31 -108 82 -147 113 -38 31 -148 114 -243 183
-160 117 -357 272 -494 390 l-57 48 26 40 c21 32 25 47 21 88 -3 27 -14 62
-27 79 l-22 31 99 78 c181 142 335 260 492 375 85 63 216 164 290 226 74 61
137 111 140 111 3 1 64 -47 135 -106z m2238 -16 c84 -68 235 -185 337 -260
208 -154 410 -308 477 -365 l45 -37 -26 -49 c-32 -61 -32 -81 -1 -141 25 -46
25 -48 8 -68 -33 -37 -364 -301 -548 -437 -101 -74 -243 -181 -316 -237 l-133
-101 -41 29 c-22 16 -98 74 -170 130 -71 56 -193 147 -269 202 -129 93 -259
197 -458 362 l-77 64 24 43 c31 55 31 100 0 153 l-24 42 27 25 c27 26 200 159
417 323 66 49 170 127 230 173 61 45 162 125 225 177 63 52 116 94 118 95 2 0
72 -55 155 -123z m-9981 -1109 c83 -68 224 -177 314 -243 179 -132 460 -347
512 -392 l34 -28 -26 -45 c-32 -56 -32 -93 -1 -149 20 -34 23 -47 14 -58 -25
-29 -370 -304 -545 -433 -100 -74 -245 -183 -321 -242 l-139 -106 -130 99
c-71 55 -211 160 -311 234 -185 137 -523 406 -556 443 -18 20 -18 21 3 50 35
47 37 103 7 155 l-26 44 37 35 c34 32 130 106 397 308 56 41 159 119 230 173
72 53 180 138 240 187 61 49 111 90 113 90 2 0 71 -55 154 -122z m2208 7 c69
-56 222 -174 340 -262 269 -201 433 -327 489 -375 l43 -37 -23 -33 c-33 -46
-33 -120 -1 -166 18 -24 21 -36 13 -45 -20 -25 -429 -350 -606 -481 -99 -74
-230 -173 -292 -220 l-111 -85 -119 90 c-65 50 -221 169 -348 264 -247 186
-485 376 -524 418 l-23 26 23 33 c33 45 33 114 1 158 l-24 32 29 30 c15 16 87
74 158 129 72 54 171 130 220 167 50 38 160 122 245 185 85 64 202 155 259
201 58 47 109 82 115 79 6 -4 67 -52 136 -108z m2205 11 c44 -37 141 -112 215
-168 308 -232 361 -272 478 -362 68 -52 139 -108 157 -126 l33 -32 -24 -35
c-33 -48 -32 -108 1 -157 l25 -37 -32 -30 c-69 -64 -328 -270 -508 -404 -104
-77 -254 -190 -334 -252 l-146 -112 -143 109 c-78 61 -216 165 -307 231 -170
126 -498 389 -537 431 l-22 24 24 49 c31 61 31 69 -2 134 l-26 54 43 36 c65
53 253 197 439 335 90 66 247 187 349 268 l184 148 27 -19 c14 -11 62 -49 106
-85z m2200 14 c61 -49 168 -134 240 -187 71 -54 174 -132 230 -173 217 -164
392 -300 410 -320 18 -20 18 -21 -3 -59 -28 -49 -28 -103 0 -152 l22 -39 -25
-26 c-39 -43 -276 -232 -524 -419 -126 -95 -283 -214 -348 -264 l-119 -91
-111 86 c-62 48 -209 159 -327 247 -261 195 -570 445 -570 461 0 6 9 25 20 41
27 41 26 107 -2 157 l-23 40 47 39 c64 54 298 233 508 388 96 71 238 181 315
245 77 63 142 115 145 115 3 0 55 -40 115 -89z m2274 -44 c91 -73 227 -178
301 -232 74 -54 176 -130 225 -169 50 -39 133 -103 185 -142 52 -39 103 -80
114 -91 18 -21 18 -22 -5 -58 -14 -23 -22 -52 -22 -79 0 -27 8 -56 22 -79 23
-36 23 -37 5 -58 -34 -37 -371 -306 -557 -443 -100 -74 -240 -179 -311 -234
l-130 -99 -139 106 c-76 59 -221 168 -322 242 -170 126 -234 176 -467 368
l-89 73 23 32 c32 44 32 129 1 173 l-22 31 27 25 c32 30 214 170 537 413 127
95 280 214 340 264 61 49 112 90 114 90 2 1 79 -59 170 -133z m-7777 -1098
c83 -68 233 -184 333 -258 203 -150 441 -332 494 -377 l35 -30 -23 -32 c-36
-50 -38 -101 -7 -156 14 -26 24 -51 21 -55 -11 -18 -381 -312 -525 -418 -85
-63 -202 -151 -260 -196 -58 -45 -132 -103 -166 -128 l-60 -46 -125 95 c-68
52 -194 147 -279 211 -255 189 -556 428 -593 470 -18 20 -18 21 3 50 34 46 36
99 7 153 l-25 47 32 31 c41 40 277 222 511 394 99 72 207 154 239 182 71 59
230 185 234 185 2 0 71 -55 154 -122z m2208 7 c69 -56 222 -174 340 -262 248
-186 428 -323 489 -374 l43 -35 -27 -40 c-22 -32 -26 -47 -23 -85 3 -26 15
-60 27 -78 l22 -31 -28 -26 c-63 -59 -387 -317 -539 -429 -90 -66 -228 -170
-308 -232 l-145 -111 -113 85 c-62 48 -133 103 -158 123 -25 20 -121 93 -215
161 -173 127 -404 311 -482 384 l-43 40 26 50 c29 57 27 102 -6 147 -32 44
-64 12 275 275 77 60 199 151 270 203 72 52 201 152 289 222 89 73 163 125
170 121 6 -4 67 -52 136 -108z m2180 30 c58 -47 175 -138 260 -202 394 -295
591 -447 619 -477 l25 -26 -22 -39 c-29 -52 -29 -109 2 -154 l24 -35 -42 -40
c-57 -56 -252 -212 -436 -349 -85 -64 -188 -141 -228 -172 -40 -31 -127 -97
-193 -148 l-120 -91 -126 96 c-68 54 -208 158 -309 234 -195 144 -513 398
-553 441 l-23 26 22 36 c29 48 29 101 -1 155 l-24 42 49 41 c65 55 247 194
486 371 107 80 258 197 335 260 77 63 142 115 145 115 3 1 52 -37 110 -84z
m2215 4 c157 -127 238 -189 415 -322 263 -196 454 -343 474 -365 18 -21 18
-22 -4 -57 -29 -47 -29 -101 0 -154 23 -40 23 -41 4 -62 -32 -36 -370 -306
-508 -407 -72 -52 -187 -138 -256 -192 -69 -53 -149 -115 -179 -137 l-55 -41
-60 46 c-34 25 -108 83 -166 128 -58 45 -175 133 -260 196 -181 133 -520 406
-520 419 0 5 9 26 20 46 28 52 26 111 -4 156 l-25 36 52 44 c29 24 90 72 137
107 47 35 117 89 155 120 39 31 153 118 255 193 102 75 237 180 300 232 63 52
117 94 120 94 3 1 50 -35 105 -80z m2284 -53 c91 -73 236 -184 321 -246 85
-62 187 -138 225 -169 39 -31 113 -88 165 -128 139 -104 136 -100 105 -158
-31 -60 -31 -80 0 -140 21 -39 23 -50 13 -62 -24 -29 -373 -307 -523 -417 -82
-60 -190 -142 -240 -181 -49 -39 -124 -96 -165 -126 l-76 -56 -134 104 c-74
57 -218 165 -320 240 -102 75 -221 166 -265 202 -44 36 -123 101 -176 143
-129 104 -125 98 -93 144 21 32 25 47 22 85 -3 26 -14 60 -26 76 l-21 30 32
30 c39 37 222 178 627 482 74 55 185 141 245 191 61 49 112 90 114 90 2 0 79
-60 170 -134z m-9980 -1110 c91 -73 227 -178 301 -232 74 -54 176 -130 225
-169 50 -39 133 -103 186 -143 52 -39 104 -80 113 -91 17 -19 17 -21 -4 -51
-35 -48 -36 -96 -5 -154 25 -48 26 -50 8 -67 -37 -37 -283 -233 -433 -346
-177 -133 -295 -223 -448 -340 -59 -45 -111 -82 -116 -83 -6 0 -70 46 -144
103 -73 56 -216 163 -316 237 -177 131 -520 404 -545 434 -10 12 -8 20 9 44
34 46 37 102 7 155 l-25 45 42 40 c43 41 206 167 516 397 103 77 248 188 321
248 73 59 135 107 137 107 3 0 80 -60 171 -134z m2200 14 c81 -66 231 -182
334 -257 196 -146 439 -332 496 -380 l34 -29 -22 -31 c-35 -47 -38 -103 -8
-157 l25 -45 -26 -27 c-50 -50 -370 -305 -556 -442 -102 -76 -239 -179 -305
-229 -66 -51 -124 -93 -129 -93 -5 0 -63 41 -128 91 -66 50 -222 169 -349 264
-234 176 -457 354 -508 404 l-28 27 25 45 c32 56 32 84 0 145 l-26 48 34 28
c18 16 92 73 163 128 72 55 162 124 200 153 39 30 149 113 245 186 96 72 219
167 274 211 54 44 100 80 103 80 2 0 71 -54 152 -120z m2167 40 c55 -44 178
-139 274 -211 96 -73 207 -156 245 -186 181 -139 343 -264 369 -285 l28 -24
-27 -39 c-22 -33 -26 -48 -23 -86 3 -26 15 -60 27 -77 l21 -30 -62 -55 c-123
-108 -305 -253 -473 -376 -93 -68 -190 -141 -215 -161 -89 -72 -261 -200 -269
-200 -5 0 -73 49 -152 110 -79 60 -216 163 -305 228 -162 120 -504 393 -536
429 -17 18 -16 21 7 68 31 60 31 70 0 131 -14 27 -25 52 -25 56 0 11 331 269
570 443 85 63 218 165 295 229 77 63 143 115 146 115 4 1 51 -35 105 -79z
m2171 39 c30 -22 93 -73 141 -113 48 -40 170 -134 272 -209 271 -200 470 -354
509 -392 l34 -33 -22 -35 c-29 -48 -28 -114 3 -160 l25 -36 -42 -38 c-90 -82
-329 -271 -577 -455 -85 -64 -208 -157 -274 -207 -65 -50 -123 -91 -128 -91
-5 0 -63 42 -129 93 -66 50 -203 153 -305 229 -194 143 -512 398 -553 441
l-23 26 21 34 c28 45 27 108 -1 158 -21 38 -21 39 -3 59 10 11 62 53 114 92
53 40 137 104 186 143 50 39 164 126 255 192 91 67 226 171 300 232 74 61 137
111 139 111 2 0 28 -18 58 -41z m2288 -56 c66 -54 228 -179 360 -278 344 -259
487 -370 508 -392 17 -20 17 -22 -8 -68 -31 -60 -31 -69 1 -133 22 -45 24 -55
13 -68 -26 -31 -375 -309 -554 -441 -99 -73 -240 -179 -314 -236 l-135 -103
-115 88 c-64 49 -165 126 -226 171 -60 46 -171 129 -245 185 -134 101 -289
225 -383 306 l-49 42 26 38 c34 51 35 108 2 157 l-25 36 32 30 c32 30 188 152
422 328 66 49 170 127 230 173 61 45 160 123 220 172 61 49 112 90 115 90 3 0
60 -44 125 -97z m-7737 -1130 c80 -65 228 -179 328 -253 244 -180 495 -374
518 -398 17 -20 17 -21 -4 -50 -35 -47 -37 -103 -7 -155 l26 -44 -47 -45 c-72
-69 -284 -238 -522 -415 -118 -88 -265 -200 -327 -247 -61 -47 -115 -86 -120
-86 -4 0 -66 45 -138 100 -71 55 -213 162 -315 237 -102 75 -232 175 -290 222
-58 48 -137 112 -177 144 -100 81 -98 77 -68 128 31 56 31 92 -1 149 l-25 44
42 36 c58 48 363 282 599 458 74 55 188 144 253 196 65 53 120 96 124 96 3 0
71 -53 151 -117z m2193 20 c150 -121 212 -170 409 -316 218 -161 431 -325 458
-351 l23 -23 -25 -38 c-33 -48 -33 -97 -2 -152 l24 -41 -42 -39 c-67 -64 -338
-281 -516 -411 -91 -67 -230 -171 -309 -232 -79 -60 -147 -110 -151 -110 -4 0
-61 41 -126 91 -66 50 -213 162 -329 248 -206 154 -442 342 -517 411 l-38 35
25 49 c31 62 31 81 0 141 -20 36 -23 50 -14 61 15 19 241 191 654 501 61 46
162 125 225 177 63 52 119 95 123 95 4 1 62 -43 128 -96z m2216 1 c65 -52 181
-142 258 -200 176 -130 419 -316 541 -413 l94 -73 -22 -31 c-12 -16 -23 -51
-26 -78 -4 -41 0 -56 21 -88 l26 -38 -32 -31 c-58 -56 -279 -232 -512 -407
-126 -95 -283 -214 -349 -264 -65 -50 -122 -91 -126 -91 -4 0 -63 43 -131 95
-68 52 -207 157 -309 232 -187 138 -519 403 -554 441 -18 21 -18 22 4 57 29
47 29 101 0 154 -23 40 -23 41 -4 62 23 25 274 219 512 394 97 72 245 186 327
253 83 67 153 122 157 122 3 0 59 -43 125 -96z m2260 -32 c87 -71 232 -183
323 -250 254 -188 452 -340 489 -377 l34 -33 -23 -37 c-29 -47 -29 -101 0
-153 28 -50 31 -45 -99 -150 -53 -42 -132 -107 -176 -143 -44 -36 -163 -128
-265 -202 -102 -75 -243 -182 -315 -237 -71 -55 -134 -100 -138 -100 -5 0 -59
39 -120 86 -62 48 -209 159 -327 247 -225 168 -498 386 -539 431 l-25 26 22
39 c29 52 29 109 -2 154 l-24 35 31 30 c33 32 152 123 542 417 127 96 277 212
335 259 58 47 108 86 112 86 4 0 78 -58 165 -128z m2208 7 c83 -67 215 -169
295 -227 80 -58 186 -138 235 -177 50 -39 133 -103 185 -142 52 -39 105 -82
117 -95 l22 -24 -25 -49 c-28 -57 -26 -100 8 -148 11 -15 18 -33 15 -41 -7
-18 -345 -291 -524 -422 -83 -62 -218 -163 -298 -225 -81 -63 -157 -120 -169
-128 -22 -13 -31 -8 -166 95 -78 60 -224 169 -323 243 -100 73 -207 154 -237
180 -30 26 -98 81 -150 123 -52 42 -110 89 -129 105 l-33 29 27 39 c22 33 26
48 23 86 -3 26 -14 60 -26 76 l-21 30 37 35 c34 33 174 142 402 313 52 40 156
118 230 173 74 56 182 140 240 187 58 47 107 85 110 85 3 0 73 -54 155 -121z
m-9980 -1110 c83 -67 215 -169 295 -227 80 -59 186 -138 235 -177 50 -39 135
-105 190 -147 55 -41 108 -85 118 -96 18 -20 18 -21 -3 -50 -34 -45 -36 -99
-7 -153 l25 -47 -46 -44 c-72 -68 -284 -237 -522 -415 -118 -88 -266 -200
-328 -248 -62 -48 -118 -84 -125 -81 -7 2 -58 40 -114 83 -100 77 -199 152
-463 351 -136 103 -379 297 -414 332 -18 18 -18 19 4 50 35 50 37 100 6 157
l-27 48 44 38 c64 53 303 235 507 386 96 71 238 181 315 245 77 63 145 115
150 116 6 0 78 -54 160 -121z m2234 -12 c91 -74 240 -188 331 -255 209 -154
458 -346 488 -376 l23 -23 -25 -38 c-33 -48 -33 -96 -2 -150 l25 -42 -42 -40
c-70 -66 -340 -281 -537 -426 -102 -75 -241 -180 -309 -232 -68 -52 -126 -95
-130 -95 -3 0 -64 45 -136 100 -71 55 -204 155 -295 222 -91 67 -199 149 -240
182 -41 33 -130 104 -196 158 -67 54 -126 104 -132 111 -8 10 -5 25 13 62 31
61 31 79 0 141 l-25 49 23 21 c26 25 206 164 532 409 127 95 280 214 340 264
61 49 114 90 119 90 5 1 84 -59 175 -132z m2164 42 c62 -50 216 -169 342 -264
293 -220 504 -382 531 -407 l22 -19 -25 -45 c-30 -54 -28 -115 6 -162 l21 -31
-57 -49 c-129 -111 -307 -253 -473 -375 -96 -71 -213 -160 -260 -196 -159
-126 -224 -172 -236 -167 -14 5 -196 143 -274 206 -25 20 -112 86 -195 146
-151 111 -499 388 -524 417 -11 14 -9 22 10 53 30 49 30 110 -1 159 l-23 37
24 24 c31 31 272 216 519 399 107 79 256 194 330 254 74 61 139 111 143 111 5
0 59 -41 120 -91z m2233 -11 c69 -57 210 -166 314 -243 246 -183 463 -349 522
-399 l46 -40 -24 -35 c-33 -49 -33 -115 1 -164 l24 -37 -68 -57 c-156 -132
-325 -266 -497 -393 -100 -74 -243 -182 -318 -239 l-136 -104 -37 26 c-21 15
-96 72 -168 128 -71 56 -195 148 -274 206 -148 108 -481 374 -515 412 -19 21
-19 22 2 60 12 21 22 55 22 76 0 21 -10 55 -22 76 -21 38 -21 39 -2 60 10 12
64 56 119 97 55 42 141 108 190 147 50 39 155 118 235 177 80 58 212 160 295
227 82 67 153 121 158 121 5 0 65 -46 133 -102z m2206 10 c62 -51 221 -174
353 -273 347 -261 487 -369 512 -397 l22 -24 -24 -49 c-31 -60 -31 -70 0 -131
14 -27 23 -54 21 -60 -7 -17 -358 -299 -540 -432 -94 -69 -202 -151 -241 -182
-81 -65 -222 -170 -230 -170 -4 0 -96 69 -310 233 -38 30 -149 113 -245 186
-207 156 -359 277 -416 333 l-42 40 24 35 c32 48 32 108 0 156 l-24 35 32 31
c40 39 272 218 496 383 91 67 196 147 234 177 165 134 251 201 258 201 3 0 57
-42 120 -92z m-7727 -1139 c83 -67 215 -169 295 -227 80 -58 186 -138 235
-177 50 -39 133 -103 185 -142 52 -39 106 -82 118 -96 l24 -25 -22 -30 c-34
-45 -36 -99 -7 -153 l25 -47 -41 -39 c-67 -64 -339 -280 -497 -395 -80 -58
-203 -152 -275 -207 -71 -56 -147 -113 -167 -127 l-37 -26 -141 109 c-78 59
-224 168 -323 242 -100 73 -207 154 -237 180 -30 26 -110 91 -177 144 -67 54
-125 102 -128 106 -3 5 6 29 20 53 31 55 31 92 0 147 -20 33 -23 47 -14 57 6
8 66 55 133 106 66 51 164 126 217 168 53 41 167 128 255 192 87 65 211 161
274 213 63 52 120 94 125 95 6 0 78 -54 160 -121z m2134 69 c36 -29 102 -82
146 -119 44 -36 163 -127 265 -202 209 -155 412 -309 483 -368 l47 -40 -25
-43 c-32 -54 -32 -98 0 -151 l24 -42 -37 -35 c-66 -62 -344 -283 -503 -399
-84 -62 -203 -152 -264 -199 -60 -47 -134 -103 -163 -124 l-53 -38 -116 88
c-64 49 -221 168 -348 264 -228 172 -528 410 -539 429 -4 5 5 31 19 57 31 59
31 79 0 139 -25 45 -25 48 -8 67 21 24 237 189 633 487 74 55 185 141 245 191
61 49 114 90 119 90 4 0 38 -24 75 -52z m2273 -45 c66 -54 204 -161 308 -238
198 -147 369 -278 501 -383 l79 -63 -26 -39 c-22 -33 -26 -48 -22 -89 3 -27
14 -62 27 -79 l22 -31 -78 -65 c-171 -143 -282 -231 -368 -295 -107 -79 -284
-212 -452 -340 l-123 -94 -136 104 c-75 57 -218 165 -318 239 -184 136 -519
403 -544 433 -12 14 -10 24 13 70 29 60 27 87 -7 145 l-20 33 23 26 c13 14 67
57 119 96 52 39 136 103 185 142 50 39 155 119 235 177 80 58 212 160 295 227
82 67 153 121 158 121 5 0 63 -44 129 -97z m2251 -26 c84 -68 222 -174 307
-237 85 -62 184 -136 220 -165 36 -28 110 -86 165 -128 55 -42 113 -88 130
-101 l29 -25 -23 -42 c-30 -52 -30 -107 -2 -154 11 -20 21 -40 21 -45 0 -5
-38 -39 -83 -77 -46 -37 -128 -104 -182 -148 -54 -44 -180 -141 -280 -215
-101 -74 -247 -184 -325 -243 l-141 -109 -37 26 c-20 14 -95 71 -167 127 -71
55 -195 149 -275 207 -80 58 -181 135 -225 171 -44 36 -114 93 -155 125 -41
33 -94 77 -116 99 l-42 39 24 35 c31 46 31 102 2 154 l-22 40 34 34 c38 37
234 188 490 377 91 67 236 179 323 250 87 70 163 128 168 128 6 0 79 -55 162
-123z m2223 -5 c88 -70 218 -170 289 -222 72 -52 171 -126 220 -165 50 -39
135 -105 190 -147 55 -41 110 -86 122 -100 l22 -24 -24 -49 c-31 -61 -31 -69
2 -135 l26 -53 -25 -21 c-205 -169 -371 -301 -548 -433 -118 -88 -265 -199
-327 -247 -61 -47 -114 -86 -117 -86 -6 0 -198 144 -262 196 -22 18 -124 95
-226 171 -211 156 -411 315 -480 381 l-47 45 21 28 c12 15 23 49 25 76 4 40 0
55 -21 86 l-26 37 42 38 c51 46 274 218 528 407 107 80 250 190 318 245 68 55
127 100 132 100 4 0 79 -57 166 -128z"/>
</g>
</svg>
